<svg width="179" height="54" viewBox="0 0 179 54" fill="none" xmlns="http://www.w3.org/2000/svg">
<path d="M0.63 53.14C1.84333 46.7 3.03333 40.3767 4.2 34.17C4.62 31.5567 5.08667 28.85 5.6 26.05C6.11333 23.2033 6.60333 20.4033 7.07 17.65C7.53667 14.8967 7.98 12.2367 8.4 9.67C8.82 7.05667 9.19333 4.67667 9.52 2.53L20.86 1.76C20.0667 5.02666 19.2733 8.43333 18.48 11.98C17.7333 15.5267 17.0333 18.98 16.38 22.34L23.31 21.57C23.9633 18.2567 24.5467 15.06 25.06 11.98C25.5733 8.85333 26.25 5.63333 27.09 2.32C28.1633 2.13333 29.3533 1.99333 30.66 1.9C31.9667 1.76 33.18 1.64333 34.3 1.55C35.42 1.45666 36.3533 1.38666 37.1 1.34C37.8933 1.24667 38.29 1.2 38.29 1.2C37.6367 3.3 37.0067 5.61 36.4 8.13C35.84 10.6033 35.28 13.1933 34.72 15.9C34.16 18.56 33.6233 21.2667 33.11 24.02C32.5967 26.7733 32.13 29.3867 31.71 31.86C30.6833 37.7867 29.7267 43.8533 28.84 50.06L17.92 51.32C18.5267 48.52 19.0633 45.79 19.53 43.13C19.9967 40.89 20.4633 38.5567 20.93 36.13C21.4433 33.7033 21.84 31.6267 22.12 29.9L15.33 30.53C15.0033 32.3033 14.6067 34.3567 14.14 36.69C13.72 39.0233 13.3233 41.24 12.95 43.34C12.4367 45.86 11.9233 48.38 11.41 50.9L0.63 53.14ZM31.5268 53.07L40.6968 3.3L62.8168 1.41C62.4901 2.43666 62.2101 3.48666 61.9768 4.56C61.7435 5.44666 61.5101 6.38 61.2768 7.36C61.0901 8.29333 60.9268 9.13333 60.7868 9.88C60.3201 9.92666 59.6435 9.97333 58.7568 10.02C57.9168 10.02 57.0068 10.0433 56.0268 10.09C55.0468 10.09 54.0435 10.09 53.0168 10.09C52.0368 10.09 51.1735 10.09 50.4268 10.09L47.9768 22.62C49.4235 22.5267 50.7768 22.4567 52.0368 22.41C53.0635 22.3633 54.1135 22.34 55.1868 22.34C56.2601 22.34 57.0535 22.3167 57.5668 22.27C57.3801 23.5767 57.1935 24.86 57.0068 26.12C56.8668 27.38 56.6801 28.6633 56.4468 29.97C55.9801 30.0167 55.2101 30.0633 54.1368 30.11C53.1101 30.11 52.0601 30.1333 50.9868 30.18C49.7735 30.2267 48.4435 30.2733 46.9968 30.32L44.6168 43.2L54.8368 41.59L54.1368 49.57L31.5268 53.07ZM55.1042 53.07C56.3642 46.8633 57.5776 40.7967 58.7442 34.87C59.1642 32.35 59.6309 29.7367 60.1442 27.03C60.6576 24.2767 61.1242 21.57 61.5442 18.91C62.0109 16.2033 62.4309 13.6133 62.8042 11.14C63.2242 8.62 63.5509 6.33333 63.7842 4.28C66.4442 3.44 69.3142 2.83333 72.3942 2.46C75.4742 2.04 78.5309 1.83 81.5642 1.83C83.3842 1.83 84.8776 2.04 86.0442 2.46C87.2576 2.88 88.1909 3.48666 88.8442 4.28C89.5442 5.02667 90.0342 5.91333 90.3142 6.94C90.5942 7.96666 90.7342 9.11 90.7342 10.37C90.7342 12.2367 90.4076 14.08 89.7542 15.9C89.1009 17.6733 88.2142 19.3767 87.0942 21.01C86.0209 22.5967 84.7609 24.0667 83.3142 25.42C81.9142 26.7267 80.3976 27.8 78.7642 28.64C79.6042 30.5067 80.4909 32.56 81.4242 34.8C82.4042 36.9933 83.3142 39.0933 84.1542 41.1C85.0876 43.4333 86.0442 45.7667 87.0242 48.1L76.1742 51.88C75.2409 48.66 74.4009 45.6267 73.6542 42.78C73.3276 41.6133 73.0009 40.4233 72.6742 39.21C72.3476 37.95 72.0442 36.7833 71.7642 35.71C71.4842 34.59 71.2509 33.61 71.0642 32.77C70.8776 31.93 70.7609 31.2767 70.7142 30.81L69.8042 31.09C69.5242 32.5833 69.1742 34.4033 68.7542 36.55C68.3809 38.6967 68.0309 40.7733 67.7042 42.78C67.2842 45.16 66.8642 47.61 66.4442 50.13L55.1042 53.07ZM71.5542 22.69C72.4409 22.5967 73.5142 22.2233 74.7742 21.57C76.0809 20.9167 77.3176 20.1467 78.4842 19.26C79.6509 18.3267 80.6542 17.37 81.4942 16.39C82.3342 15.41 82.7542 14.5467 82.7542 13.8C82.7542 13.2867 82.5909 12.89 82.2642 12.61C81.9376 12.2833 81.4709 12.05 80.8642 11.91C80.3042 11.7233 79.6742 11.6067 78.9742 11.56C78.2742 11.5133 77.5509 11.49 76.8042 11.49C76.2909 11.49 75.7542 11.5133 75.1942 11.56C74.6809 11.56 74.2142 11.56 73.7942 11.56L71.5542 22.69ZM123.419 15.13C123.419 18.9567 122.999 22.5733 122.159 25.98C121.365 29.34 120.292 32.4433 118.939 35.29C117.585 38.09 115.999 40.61 114.179 42.85C112.405 45.0433 110.539 46.9333 108.579 48.52C106.619 50.06 104.635 51.25 102.629 52.09C100.622 52.8833 98.7088 53.28 96.8888 53.28C95.3488 53.28 93.9488 53 92.6888 52.44C91.4288 51.8333 90.3321 50.97 89.3988 49.85C88.4654 48.6833 87.7188 47.2133 87.1588 45.44C86.6454 43.62 86.3888 41.45 86.3888 38.93C86.3888 36.3167 86.7154 33.5633 87.3688 30.67C88.0221 27.7767 88.9088 24.9067 90.0288 22.06C91.1488 19.2133 92.5254 16.5067 94.1588 13.94C95.7921 11.3733 97.5888 9.11 99.5488 7.15C101.509 5.14333 103.609 3.55666 105.849 2.39C108.089 1.22333 110.422 0.639998 112.849 0.639998C114.949 0.639998 116.675 1.08333 118.029 1.97C119.429 2.81 120.502 3.93 121.249 5.33C122.042 6.68333 122.602 8.22333 122.929 9.95C123.255 11.6767 123.419 13.4033 123.419 15.13ZM96.8188 37.11C96.8188 37.6233 96.9121 38.16 97.0988 38.72C97.2854 39.28 97.5421 39.77 97.8688 40.19C98.1954 40.61 98.5921 40.9833 99.0588 41.31C99.5721 41.59 100.109 41.73 100.669 41.73C102.769 41.73 104.635 41.0067 106.269 39.56C107.902 38.1133 109.255 36.34 110.329 34.24C111.402 32.14 112.219 29.9 112.779 27.52C113.385 25.14 113.689 22.97 113.689 21.01C113.689 20.45 113.642 19.8433 113.549 19.19C113.502 18.5367 113.362 17.93 113.129 17.37C112.942 16.81 112.615 16.3433 112.149 15.97C111.729 15.55 111.145 15.34 110.399 15.34C108.905 15.34 107.529 15.7133 106.269 16.46C105.009 17.2067 103.865 18.21 102.839 19.47C101.859 20.6833 100.995 22.0833 100.249 23.67C99.5021 25.21 98.8488 26.7967 98.2888 28.43C97.7754 30.0167 97.4021 31.58 97.1688 33.12C96.9354 34.66 96.8188 35.99 96.8188 37.11ZM119.3 53.07L128.47 3.3L150.59 1.41C150.264 2.43666 149.984 3.48666 149.75 4.56C149.517 5.44666 149.284 6.38 149.05 7.36C148.864 8.29333 148.7 9.13333 148.56 9.88C148.094 9.92666 147.417 9.97333 146.53 10.02C145.69 10.02 144.78 10.0433 143.8 10.09C142.82 10.09 141.817 10.09 140.79 10.09C139.81 10.09 138.947 10.09 138.2 10.09L135.75 22.62C137.197 22.5267 138.55 22.4567 139.81 22.41C140.837 22.3633 141.887 22.34 142.96 22.34C144.034 22.34 144.827 22.3167 145.34 22.27C145.154 23.5767 144.967 24.86 144.78 26.12C144.64 27.38 144.454 28.6633 144.22 29.97C143.754 30.0167 142.984 30.0633 141.91 30.11C140.884 30.11 139.834 30.1333 138.76 30.18C137.547 30.2267 136.217 30.2733 134.77 30.32L132.39 43.2L142.61 41.59L141.91 49.57L119.3 53.07ZM173.608 35.71C173.608 38.3233 173.094 40.7033 172.068 42.85C171.088 44.95 169.734 46.77 168.008 48.31C166.328 49.85 164.321 51.04 161.988 51.88C159.701 52.72 157.228 53.14 154.568 53.14C152.701 53.14 150.834 52.65 148.968 51.67C147.101 50.6433 145.304 49.0333 143.578 46.84L148.758 36.69C149.084 37.2967 149.574 37.9267 150.228 38.58C150.881 39.1867 151.604 39.7233 152.398 40.19C153.238 40.6567 154.054 41.0533 154.848 41.38C155.688 41.66 156.434 41.8 157.088 41.8C157.648 41.8 158.231 41.7067 158.838 41.52C159.444 41.3333 160.004 41.0533 160.518 40.68C161.031 40.3067 161.428 39.8867 161.708 39.42C162.034 38.9067 162.198 38.3233 162.198 37.67C162.198 36.55 161.824 35.5233 161.078 34.59C160.378 33.61 159.491 32.7 158.418 31.86C157.344 30.9733 156.178 30.0867 154.918 29.2C153.658 28.3133 152.491 27.38 151.418 26.4C150.391 25.42 149.504 24.3233 148.758 23.11C148.011 21.8967 147.638 20.5433 147.638 19.05C147.638 16.6233 148.361 14.36 149.808 12.26C151.254 10.16 153.051 8.36333 155.198 6.87C157.391 5.33 159.771 4.11666 162.338 3.23C164.904 2.34333 167.331 1.9 169.618 1.9C170.878 1.9 172.068 2.06333 173.188 2.39C174.308 2.67 175.264 3.16 176.058 3.86C176.898 4.51333 177.551 5.35333 178.018 6.38C178.531 7.40666 178.788 8.69 178.788 10.23C178.788 10.8833 178.718 11.5367 178.578 12.19C178.484 12.8433 178.391 13.5433 178.298 14.29L168.148 17.23C168.241 16.8567 168.311 16.4833 168.358 16.11C168.451 15.7367 168.498 15.3633 168.498 14.99C168.498 13.59 168.241 12.5867 167.728 11.98C167.261 11.3267 166.631 11 165.838 11C165.464 11 164.998 11.14 164.438 11.42C163.924 11.7 163.388 12.0733 162.828 12.54C162.314 12.96 161.871 13.4733 161.498 14.08C161.124 14.6867 160.938 15.34 160.938 16.04C160.938 17.16 161.241 18.0933 161.848 18.84C162.501 19.5867 163.294 20.2867 164.228 20.94C165.161 21.5933 166.164 22.27 167.238 22.97C168.358 23.6233 169.384 24.4867 170.318 25.56C171.251 26.6333 172.021 27.9867 172.628 29.62C173.281 31.2067 173.608 33.2367 173.608 35.71Z" fill="white"/>
</svg>
